<?xml version="1.0" encoding="UTF-8" standalone="no"?><!DOCTYPE svg PUBLIC "-//W3C//DTD SVG 1.1//EN" "http://www.w3.org/Graphics/SVG/1.1/DTD/svg11.dtd"><svg width="100%" height="100%" viewBox="0 0 179 39" version="1.1" xmlns="http://www.w3.org/2000/svg" xmlns:xlink="http://www.w3.org/1999/xlink" xml:space="preserve" xmlns:serif="http://www.serif.com/" style="fill-rule:evenodd;clip-rule:evenodd;stroke-linejoin:round;stroke-miterlimit:2;"><rect id="Artboard1" x="0" y="0" width="178.445" height="38.99" style="fill:none;"/><g><path d="M41.117,10.349l-6.57,20.922l3.209,0l1.09,-3.512l5.934,0c1.362,0 1.726,-0.727 2.18,-1.453l0.182,0l1.544,4.966l3.785,0l-6.57,-20.922l-4.784,0Zm0.606,14.352c-1.362,0 -1.726,0.696 -2.18,1.453l-0.182,0l3.724,-11.839l0.272,0l3.27,10.385l-4.905,0Z" style="fill:#0c0066;fill-rule:nonzero;"/><path d="M53.833,16.132l0,15.139l3.331,0l0,-13.11l3.694,0l0,-3.058l-1.332,0c-1.362,0 -1.726,0.727 -2.18,1.453l-0.182,0l0,-0.424c0,-2.604 0.606,-4.723 3.966,-4.723l1.272,0l0,-3.058l-1.272,0c-4.39,0 -7.297,2.18 -7.297,7.781Z" style="fill:#0c0066;fill-rule:nonzero;"/><path d="M69.305,15.102c-1.362,0 -1.726,0.727 -2.18,1.453l-0.182,0l0,-0.424c0,-2.604 0.606,-4.723 3.966,-4.723l2.362,0l0,-3.058l-2.362,0c-4.39,0 -7.297,2.18 -7.297,7.781l0,15.139l3.331,0l0,-13.11l3.482,0l0,13.11l3.331,0l0,-16.168l-4.451,0Z" style="fill:#0c0066;fill-rule:nonzero;"/><rect x="74.998" y="8.35" width="3.331" height="22.92" style="fill:#0c0066;fill-rule:nonzero;"/><path d="M81.992,13.649c1.211,0 2.392,-0.696 2.392,-2.483c0,-1.786 -1.181,-2.483 -2.392,-2.483c-1.181,0 -2.362,0.696 -2.362,2.483c0,1.786 1.181,2.483 2.362,2.483Zm1.696,1.453l-3.361,0l0,16.168l3.361,0l0,-16.168Z" style="fill:#0c0066;fill-rule:nonzero;"/><g transform="matrix(0.610638,0,0,0.610638,-126.713213,-212.957514)"><g transform="matrix(52.306499,0,0,52.306499,345.62555,399.162736)"><path d="M0.171,-0.35c0,-0.136 0.094,-0.241 0.234,-0.241c0.107,0 0.176,0.05 0.202,0.13l0.143,0c-0.034,-0.175 -0.155,-0.249 -0.346,-0.249c-0.223,0 -0.364,0.14 -0.364,0.36l0.131,0Zm0.223,0.35l0.232,-0.167l0,0.167l0.126,-0l0,-0.373l-0.372,0l0,0.098l0.202,0l-0.382,0.275l0.194,-0Z" style="fill:#0c0066;fill-rule:nonzero;"/></g><g transform="matrix(50.166667,0,0,50.166667,387.627669,399.162736)"><path d="M0.116,-0.482l-0.006,0l0,-0.048l-0.11,0l0,0.534l0.11,-0l0,-0.433l0.23,0l0,-0.101l-0.152,0c-0.045,0 -0.057,0.024 -0.072,0.048Z" style="fill:#0c0066;fill-rule:nonzero;"/></g><g transform="matrix(50.166667,0,0,50.166667,406.791336,399.162736)"><path d="M0.078,-0.578c0.04,0 0.079,-0.023 0.079,-0.082c0,-0.059 -0.039,-0.082 -0.079,-0.082c-0.039,0 -0.078,0.023 -0.078,0.082c0,0.059 0.039,0.082 0.078,0.082Zm0.056,0.048l-0.111,0l0,0.534l0.111,-0l0,-0.534Z" style="fill:#0c0066;fill-rule:nonzero;"/></g><g transform="matrix(50.166667,0,0,50.166667,416.925002,399.162736)"><path d="M0.413,-0.482l-0.006,0c-0.015,-0.024 -0.027,-0.048 -0.072,-0.048l-0.071,0c-0.133,0 -0.264,0.069 -0.264,0.267c0,0.197 0.131,0.276 0.264,0.276c0.056,-0 0.109,-0.019 0.149,-0.055l0,0.046l0.11,0l0,-0.757l-0.11,0l0,0.271Zm0,0.173c0,0.123 -0.05,0.22 -0.149,0.22c-0.1,0 -0.149,-0.076 -0.149,-0.174c0,-0.098 0.049,-0.166 0.149,-0.166l0.149,0l0,0.12Z" style="fill:#0c0066;fill-rule:nonzero;"/></g></g></g></svg>