<?xml version="1.0" encoding="UTF-8" standalone="no"?><!DOCTYPE svg PUBLIC "-//W3C//DTD SVG 1.1//EN" "http://www.w3.org/Graphics/SVG/1.1/DTD/svg11.dtd"><svg width="100%" height="100%" viewBox="0 0 744 163" version="1.1" xmlns="http://www.w3.org/2000/svg" xmlns:xlink="http://www.w3.org/1999/xlink" xml:space="preserve" xmlns:serif="http://www.serif.com/" style="fill-rule:evenodd;clip-rule:evenodd;stroke-linejoin:round;stroke-miterlimit:2;"><rect id="Artboard1" x="0" y="0" width="743.522" height="162.458" style="fill:none;"/><g><path d="M55.244,31.157l-34.542,109.993l16.873,0l5.73,-18.465l31.199,0c7.163,0 9.073,-3.82 11.461,-7.641l0.955,0l8.118,26.106l19.897,0l-34.542,-109.993l-25.15,0Zm3.184,75.451c-7.163,0 -9.073,3.661 -11.461,7.641l-0.955,0l19.579,-62.239l1.433,0l17.191,54.599l-25.787,0Z" style="fill:#0c0066;fill-rule:nonzero;"/><path d="M122.099,61.56l0,79.59l17.51,0l0,-68.925l19.42,0l0,-16.077l-7.004,0c-7.163,0 -9.073,3.82 -11.461,7.641l-0.955,0l0,-2.229c0,-13.689 3.184,-24.832 20.853,-24.832l6.686,0l0,-16.077l-6.686,0c-23.081,0 -38.362,11.461 -38.362,40.909Z" style="fill:#0c0066;fill-rule:nonzero;"/><path d="M203.44,56.148c-7.163,0 -9.073,3.82 -11.461,7.641l-0.955,0l0,-2.229c0,-13.689 3.184,-24.832 20.853,-24.832l12.416,0l0,-16.077l-12.416,0c-23.081,0 -38.362,11.461 -38.362,40.909l0,79.59l17.51,0l0,-68.925l18.306,0l0,68.925l17.51,0l0,-85.002l-23.399,0Z" style="fill:#0c0066;fill-rule:nonzero;"/><rect x="233.366" y="20.651" width="17.51" height="120.499" style="fill:#0c0066;fill-rule:nonzero;"/><path d="M270.136,48.507c6.367,0 12.575,-3.661 12.575,-13.053c0,-9.392 -6.208,-13.053 -12.575,-13.053c-6.208,0 -12.416,3.661 -12.416,13.053c0,9.392 6.208,13.053 12.416,13.053Zm8.914,7.641l-17.669,0l0,85.002l17.669,0l0,-85.002Z" style="fill:#0c0066;fill-rule:nonzero;"/><g transform="matrix(3.210331,0,0,3.210331,-827.095453,-1142.839731)"><g transform="matrix(52.306499,0,0,52.306499,345.62555,399.162736)"><path d="M0.171,-0.35c0,-0.136 0.094,-0.241 0.234,-0.241c0.107,0 0.176,0.05 0.202,0.13l0.143,0c-0.034,-0.175 -0.155,-0.249 -0.346,-0.249c-0.223,0 -0.364,0.14 -0.364,0.36l0.131,0Zm0.223,0.35l0.232,-0.167l0,0.167l0.126,-0l0,-0.373l-0.372,0l0,0.098l0.202,0l-0.382,0.275l0.194,-0Z" style="fill:#0c0066;fill-rule:nonzero;"/></g><g transform="matrix(50.166667,0,0,50.166667,387.627669,399.162736)"><path d="M0.116,-0.482l-0.006,0l0,-0.048l-0.11,0l0,0.534l0.11,-0l0,-0.433l0.23,0l0,-0.101l-0.152,0c-0.045,0 -0.057,0.024 -0.072,0.048Z" style="fill:#0c0066;fill-rule:nonzero;"/></g><g transform="matrix(50.166667,0,0,50.166667,406.791336,399.162736)"><path d="M0.078,-0.578c0.04,0 0.079,-0.023 0.079,-0.082c0,-0.059 -0.039,-0.082 -0.079,-0.082c-0.039,0 -0.078,0.023 -0.078,0.082c0,0.059 0.039,0.082 0.078,0.082Zm0.056,0.048l-0.111,0l0,0.534l0.111,-0l0,-0.534Z" style="fill:#0c0066;fill-rule:nonzero;"/></g><g transform="matrix(50.166667,0,0,50.166667,416.925002,399.162736)"><path d="M0.413,-0.482l-0.006,0c-0.015,-0.024 -0.027,-0.048 -0.072,-0.048l-0.071,0c-0.133,0 -0.264,0.069 -0.264,0.267c0,0.197 0.131,0.276 0.264,0.276c0.056,-0 0.109,-0.019 0.149,-0.055l0,0.046l0.11,0l0,-0.757l-0.11,0l0,0.271Zm0,0.173c0,0.123 -0.05,0.22 -0.149,0.22c-0.1,0 -0.149,-0.076 -0.149,-0.174c0,-0.098 0.049,-0.166 0.149,-0.166l0.149,0l0,0.12Z" style="fill:#0c0066;fill-rule:nonzero;"/></g></g></g></svg>